<svg width="671" height="671" viewBox="0 0 671 671" fill="none" xmlns="http://www.w3.org/2000/svg">
<rect x="0.911621" y="0.655273" width="669.82" height="669.82" rx="100" fill="url(#paint0_linear_986_14057)"/>
<circle cx="324.647" cy="337.564" r="114.489" fill="white" fill-opacity="0.4"/>
<circle cx="307.713" cy="319.952" r="114.489" fill="white"/>
<path fill-rule="evenodd" clip-rule="evenodd" d="M496.812 398.234C496.812 474.969 496.153 487.799 491.995 491.96C487.855 496.097 475.724 496.778 406.201 496.778H325.228L338.533 509.044L351.841 521.31H422.944C501.216 521.31 507.907 520.003 516.692 503.012C520.522 495.606 521.332 479.225 521.279 410.303L521.344 326.588L509.014 317.956L496.812 309.324V398.234Z" fill="white" fill-opacity="0.4"/>
<path fill-rule="evenodd" clip-rule="evenodd" d="M167.971 155.067C150.13 164.748 150.299 163.015 150.299 335.79C150.299 509.37 150.066 507.077 168.597 516.659C176.021 520.499 192.877 521.311 265.071 521.311H352.548L339.243 509.045L325.934 496.779H255.203C194.987 496.779 183.751 496.062 179.648 491.962C175.398 487.709 174.831 469.295 174.831 335.79C174.831 202.284 175.398 183.87 179.648 179.617C183.901 175.367 202.316 174.8 335.821 174.8C469.326 174.8 487.74 175.367 491.993 179.617C496.059 183.686 496.817 194.324 496.847 247.846L496.887 311.258L507.537 318.157C513.397 321.954 516.743 323.522 521.342 326.589C521.342 326.589 521.342 291.871 521.342 251.308C521.342 170.163 520.125 163.751 503.045 154.92C489.718 148.029 180.691 148.164 167.971 155.067Z" fill="white"/>
<defs>
<linearGradient id="paint0_linear_986_14057" x1="38.0372" y1="-305.319" x2="651.613" y2="-194.492" gradientUnits="userSpaceOnUse">
<stop stop-color="#0078FF"/>
<stop offset="1" stop-color="#39AB87"/>
</linearGradient>
</defs>
</svg>
